<?xml version="1.0" encoding="utf-8"?>
<!-- Generator: Adobe Illustrator 15.1.0, SVG Export Plug-In . SVG Version: 6.00 Build 0)  -->
<!DOCTYPE svg PUBLIC "-//W3C//DTD SVG 1.1//EN" "http://www.w3.org/Graphics/SVG/1.1/DTD/svg11.dtd">
<svg version="1.1" id="Layer_1" xmlns="http://www.w3.org/2000/svg" xmlns:xlink="http://www.w3.org/1999/xlink" x="0px" y="0px"
	 width="16px" height="16px" viewBox="0 0 16 16" enable-background="new 0 0 16 16" xml:space="preserve">
<g>
	<g>
		<path fill="#E6E6E6" d="M10.204,4.205c-2,2-4,4-6,6c-1.027,1.027,0.564,2.618,1.591,1.592c2-2,4-4,6-6
			C12.822,4.769,11.231,3.178,10.204,4.205L10.204,4.205z"/>
	</g>
</g>
<g>
	<g>
		<path fill="#E6E6E6" d="M4.205,5.795c2,2,4,4,6,6c1.027,1.026,2.618-0.564,1.592-1.592c-2-2-4-4-6-6
			C4.769,3.178,3.178,4.769,4.205,5.795L4.205,5.795z"/>
	</g>
</g>
</svg>
